<svg version="1.1" xmlns="http://www.w3.org/2000/svg" viewBox="0 0 1225.8037582033257 535.2420634920632" width="1225.8037582033257" height="535.2420634920632">
  <!-- svg-source:excalidraw -->
  
  <defs>
    <style class="style-fonts">
      @font-face {
        font-family: "Virgil";
        src: url("https://excalidraw.com/Virgil.woff2");
      }
      @font-face {
        font-family: "Cascadia";
        src: url("https://excalidraw.com/Cascadia.woff2");
      }
    </style>
  </defs>
  <g stroke-linecap="round" transform="translate(314.18253968254044 12.07539682539658) rotate(0 66 42.5)"><path d="M-0.41 0.83 L133.73 1.74 L131.96 85.99 L-0.12 86.62" stroke="none" stroke-width="0" fill="#ced4da"></path><path d="M1.87 -0.79 C40.71 -1.11, 82.82 -0.08, 131.4 1.35 M-0.69 0.32 C40.54 1.02, 82.1 1.23, 131.54 0.4 M133.22 -1.23 C131.24 17.59, 133.14 33.01, 133.35 85.25 M131.35 -0.08 C130.48 24.88, 131.04 49.22, 132.9 85.94 M133.31 86.92 C97.67 84.15, 61.5 84.93, -0.12 83.02 M132.89 84.45 C90.35 84.1, 50.64 83.31, 0.57 85.86 M0.62 85.73 C2.5 61.74, 2.72 42.25, -0.38 1.88 M-0.4 84.89 C-0.12 58.94, 0.55 32.48, 0.83 -0.66" stroke="#000000" stroke-width="2" fill="none"></path></g><g stroke-linecap="round" transform="translate(70.18253968254044 11.07539682539658) rotate(0 66 42.5)"><path d="M1.11 -0.66 L131.85 0.2 L131.72 86.37 L-0.59 86.75" stroke="none" stroke-width="0" fill="#ced4da"></path><path d="M1.62 1.93 C28.14 -1.37, 55.5 0.55, 133.82 -1.71 M0.88 0.89 C45.34 -0.63, 88.36 0.87, 131.63 0.08 M133.3 -0.73 C129.97 30.33, 130.77 64.34, 133.22 84.44 M131.2 -0.49 C132.28 18.12, 132.36 37.52, 132.92 85.39 M130.03 83.06 C104.16 82.63, 74.29 85.45, 1.86 84.81 M132.83 84.07 C87.87 84.33, 44.35 84.8, -0.53 84.15 M1.99 83.88 C-1.34 58.84, 1.99 31.82, -1.81 1.42 M-0.1 85.39 C-0.28 58.64, 0.18 31.53, 0.08 0.18" stroke="#000000" stroke-width="2" fill="none"></path></g><g transform="translate(99.40476190476261 26.57539682539658) rotate(0 34.91996765136719 24)"><text x="34.91996765136719" y="0" font-family="Virgil, Segoe UI Emoji" font-size="20px" fill="#000000" text-anchor="middle" style="white-space: pre;" direction="ltr" dominant-baseline="text-before-edge">Original</text><text x="34.91996765136719" y="24" font-family="Virgil, Segoe UI Emoji" font-size="20px" fill="#000000" text-anchor="middle" style="white-space: pre;" direction="ltr" dominant-baseline="text-before-edge">Data</text></g><g stroke-linecap="round"><g transform="translate(214.18253968254044 48.62890810972806) rotate(0 42.18493772018701 1.7555806617273504)"><path d="M1.2 1 C25.65 1.19, 47.53 0.35, 83.58 4.24 M0.79 -0.73 C31.47 0.83, 60.9 2.49, 83.18 3.12" stroke="#000000" stroke-width="2" fill="none"></path></g><g transform="translate(214.18253968254044 48.62890810972806) rotate(0 42.18493772018701 1.7555806617273504)"><path d="M84.89 1.17 L70.31 7.71 L69.75 -5.16 L82.35 4.68" stroke="none" stroke-width="0" fill="#000000" fill-rule="evenodd"></path><path d="M84.08 3.88 C80.46 4.94, 74.92 5.28, 69.05 9.69 M83.77 2.58 C78.67 5.18, 72.66 7.67, 68.75 8.86 M68.39 9.72 C69.43 4.95, 70.43 1.51, 68.58 -2.66 M69.13 8.7 C68.87 5.58, 69.69 1.82, 70.34 -3.79 M71.01 -4.24 C75.54 -0.57, 77.91 0.16, 84.5 3.29 M69.64 -3.27 C74.13 -1.23, 77.8 1.07, 83.85 3.83 M83.18 3.12 C83.18 3.12, 83.18 3.12, 83.18 3.12 M83.18 3.12 C83.18 3.12, 83.18 3.12, 83.18 3.12" stroke="#000000" stroke-width="2" fill="none"></path></g></g><mask></mask><g stroke-linecap="round" transform="translate(310.4467595473226 217.6309523809523) rotate(0 66 42.49999999999997)"><path d="M1.98 -0.98 L131.12 1.35 L133.34 85.66 L0.87 85.51" stroke="none" stroke-width="0" fill="#bb8fce"></path><path d="M0.52 1.22 C34.27 2.7, 69.29 2, 133.64 -0.69 M0.7 -0.24 C34.11 0.85, 69.78 1.35, 131.27 0.32 M133.62 -0.45 C131.4 16.89, 132.49 34.22, 131.8 84.55 M132.92 -0.45 C133.15 30.55, 132.22 59.71, 132.57 84.14 M132.35 86.2 C90.19 83.25, 45.58 84.85, -1.93 84.36 M131.69 85.51 C99.03 84.64, 64.95 83.8, 0.81 85.14 M1.27 83.78 C0.59 61.97, -0.79 42.71, 1.47 0.26 M-0.93 85.9 C0.23 51.16, 0.06 19.5, -0.42 0.93" stroke="#000000" stroke-width="2" fill="none"></path></g><g transform="translate(332.4467595473226 233.6309523809523) rotate(0 45.02996063232422 23.99999999999997)"><text x="45.02996063232422" y="0" font-family="Virgil, Segoe UI Emoji" font-size="20px" fill="#000000" text-anchor="middle" style="white-space: pre;" direction="ltr" dominant-baseline="text-before-edge">Mitigate</text><text x="45.02996063232422" y="24" font-family="Virgil, Segoe UI Emoji" font-size="20px" fill="#000000" text-anchor="middle" style="white-space: pre;" direction="ltr" dominant-baseline="text-before-edge">Relations</text></g><g stroke-linecap="round"><g transform="translate(460.71948338643665 262.52929250958226) rotate(0 42.521169060731154 0.5422633741439711)"><path d="M-0.43 1.96 C34.93 0.7, 67.97 -2.48, 83.3 1.03 M0.89 0.03 C25.92 -1.68, 50.4 -0.45, 85.47 -0.42" stroke="#000000" stroke-width="2" fill="none"></path></g><g transform="translate(460.71948338643665 262.52929250958226) rotate(0 42.521169060731154 0.5422633741439711)"><path d="M85.9 1.27 L72.15 6.74 L71.13 -6.72 L86.8 0.51" stroke="none" stroke-width="0" fill="#000000" fill-rule="evenodd"></path><path d="M85.15 1.05 C81.39 3.29, 75.93 3.56, 70.73 7.13 M86.14 -0.4 C82.07 0.89, 77.64 3.81, 72.36 6.05 M71.6 6.07 C71.6 2.51, 70.75 -3.09, 71.72 -7.09 M71.89 5.83 C71.96 2.41, 71.66 -0.57, 71.9 -7.04 M70.62 -7.52 C74.75 -4.76, 77.68 -5.71, 84.98 0.6 M72.65 -6.59 C75.55 -5.31, 79.01 -2.9, 85.44 -0.04 M85.47 -0.42 C85.47 -0.42, 85.47 -0.42, 85.47 -0.42 M85.47 -0.42 C85.47 -0.42, 85.47 -0.42, 85.47 -0.42" stroke="#000000" stroke-width="2" fill="none"></path></g></g><mask></mask><g stroke-linecap="round" transform="translate(563.7800928806557 215.5198412698412) rotate(0 66 42.49999999999997)"><path d="M1.69 0.33 L132.93 -0.8 L132.15 86.33 L0.92 85.08" stroke="none" stroke-width="0" fill="#bb8fce"></path><path d="M1.96 1.73 C33.84 1.86, 63.24 -1.18, 133.76 -0.1 M0.03 0.89 C29.7 -0.82, 61.68 -0.46, 132.32 0.5 M132.4 -0.39 C133.85 24.54, 132.02 52.33, 131.65 83.93 M132.04 0.19 C130.84 25.43, 131.08 51.47, 131.72 84.08 M131.13 85.05 C99.16 84.05, 62.15 83.18, 1.36 84.69 M132.37 84.69 C92.19 85.44, 53.36 86.22, 0.5 85.77 M1.64 84.18 C2.4 59.89, 0.76 32.96, 1.17 -1.2 M0.53 84.51 C-0.84 52.1, -1.35 17.11, -0.54 0.21" stroke="#000000" stroke-width="2" fill="none"></path></g><g transform="translate(570.7801233982339 234.6309523809523) rotate(0 59.029930114746094 23.99999999999997)"><text x="59.029930114746094" y="0" font-family="Virgil, Segoe UI Emoji" font-size="20px" fill="#000000" text-anchor="middle" style="white-space: pre;" direction="ltr" dominant-baseline="text-before-edge">Mitigate</text><text x="59.029930114746094" y="24" font-family="Virgil, Segoe UI Emoji" font-size="20px" fill="#000000" text-anchor="middle" style="white-space: pre;" direction="ltr" dominant-baseline="text-before-edge">Probabilities</text></g><g stroke-linecap="round"><g transform="translate(711.6447797613432 259.0668126881688) rotate(0 49.15628592627945 -0.9317095123700767)"><path d="M1.65 -0.87 C26.37 -2, 57.37 -2.12, 96.98 -1.52 M-0.57 -0.76 C31.21 0.71, 62.42 -0.28, 98.89 -0.81" stroke="#000000" stroke-width="2" fill="none"></path></g><g transform="translate(711.6447797613432 259.0668126881688) rotate(0 49.15628592627945 -0.9317095123700767)"><path d="M99.05 -0.36 L85.37 7.01 L83.64 -5.86 L96.99 0.91" stroke="none" stroke-width="0" fill="#000000" fill-rule="evenodd"></path><path d="M100.12 -1.46 C93.73 -0.28, 91.99 1.51, 84.56 4.59 M98.46 -1.37 C94.29 1.8, 89.72 3.16, 85.99 5.12 M86.3 5.14 C85.54 2.38, 85.61 -1.84, 84.71 -5.68 M85.79 5.4 C84.97 1.57, 85.89 -3.47, 85.5 -6.44 M84.19 -7.88 C90.45 -4.46, 92.24 -2.28, 100.08 -2.09 M85.78 -7.08 C89.37 -4.91, 95.22 -2.35, 99.26 -0.3 M98.89 -0.81 C98.89 -0.81, 98.89 -0.81, 98.89 -0.81 M98.89 -0.81 C98.89 -0.81, 98.89 -0.81, 98.89 -0.81" stroke="#000000" stroke-width="2" fill="none"></path></g></g><mask></mask><g stroke-linecap="round" transform="translate(828.0387225888965 213.6309523809523) rotate(0 66 42.49999999999997)"><path d="M0.45 -0.03 L133.25 -1.54 L133.06 83.11 L1.71 84.4" stroke="none" stroke-width="0" fill="#9cd6ba"></path><path d="M-0.87 -1.78 C46.69 -0.02, 95.09 -2.21, 130.44 0.43 M-0.76 -0.3 C32.25 0.14, 62.84 1.55, 131.16 -0.37 M131.04 0.35 C131.39 27.71, 130 53.57, 133.95 85.87 M131.44 -0.57 C131.59 25.98, 130.51 50.47, 132.75 84.98 M130.72 86.64 C103.39 82.7, 74.29 85.71, -1.71 86.15 M131.79 84.09 C98.12 86.4, 65.03 86.54, 0.67 84.7 M-1.13 86.96 C0.73 59.83, -2.52 36.54, 1.91 1.05 M0.83 85.22 C0.34 51.95, 0.05 19.1, -0.68 0.08" stroke="#000000" stroke-width="2" fill="none"></path></g><g transform="translate(836.648723199248 231.6309523809523) rotate(0 57.419960021972656 23.99999999999997)"><text x="57.419960021972656" y="0" font-family="Virgil, Segoe UI Emoji" font-size="20px" fill="#000000" text-anchor="middle" style="white-space: pre;" direction="ltr" dominant-baseline="text-before-edge">Fair Causal</text><text x="57.419960021972656" y="24" font-family="Virgil, Segoe UI Emoji" font-size="20px" fill="#000000" text-anchor="middle" style="white-space: pre;" direction="ltr" dominant-baseline="text-before-edge">Model</text></g><g stroke-linecap="round"><g transform="translate(972.3831946502348 284.9233447146357) rotate(0 44.70498855245796 13.108150329115801)"><path d="M0.13 -1.39 C32.8 11.27, 67.44 21.93, 87.56 27.6 M-0.38 -0.62 C30.3 7.48, 60.98 17.63, 89.79 27.03" stroke="#000000" stroke-width="2" fill="none"></path></g><g transform="translate(972.3831946502348 284.9233447146357) rotate(0 44.70498855245796 13.108150329115801)"><path d="M89.9 25.07 L74.03 29.88 L76.94 14.97 L89.53 26.19" stroke="none" stroke-width="0" fill="#000000" fill-rule="evenodd"></path><path d="M89.88 25.99 C83.18 28.19, 77.87 29.29, 73.5 29.68 M89.5 26.57 C84.93 27.36, 80.31 28.88, 75.17 29.25 M75.26 29.14 C76.19 24.24, 78.4 18.77, 78.99 15.75 M74.7 29.38 C76.95 24.37, 78.6 19.43, 78.78 16.46 M79.22 16.08 C80.42 20.49, 82.9 20.24, 89.75 25.79 M79.19 16.53 C82.36 20.45, 86.41 24.11, 89.13 27.66 M89.79 27.03 C89.79 27.03, 89.79 27.03, 89.79 27.03 M89.79 27.03 C89.79 27.03, 89.79 27.03, 89.79 27.03" stroke="#000000" stroke-width="2" fill="none"></path></g></g><mask></mask><g stroke-linecap="round" transform="translate(1080.1104708111206 289.51984126984115) rotate(0 66 42.5)"><path d="M-1.96 -0.87 L133.03 -1.89 L130.17 84.74 L-0.84 83.8" stroke="none" stroke-width="0" fill="#9cd6ba"></path><path d="M-1.39 -1.22 C33.77 -0.81, 67.36 -1.95, 133.1 0.74 M-0.62 0.22 C35.45 1.25, 72.68 0.86, 132.53 0.79 M132.46 -0.13 C131.08 34.45, 129.66 67.16, 130.35 86.7 M132.84 0.78 C133.02 22.97, 132.56 43.88, 131.48 84.33 M131.05 83.86 C107.16 84.11, 77.1 85.29, -1.66 85.75 M131.65 84.75 C89.43 85.86, 46.96 84.76, 0.83 84.41 M1.61 84.65 C0.87 53.24, 1.09 17.53, -1.91 -0.7 M0.7 85.1 C0.53 65.21, -0.1 46.63, -0.69 0.05" stroke="#000000" stroke-width="2" fill="none"></path></g><g transform="translate(1119.3504457867066 307.5198412698409) rotate(0 26.78998565673828 24)"><text x="26.78998565673828" y="0" font-family="Virgil, Segoe UI Emoji" font-size="20px" fill="#000000" text-anchor="middle" style="white-space: pre;" direction="ltr" dominant-baseline="text-before-edge">Fair</text><text x="26.78998565673828" y="24" font-family="Virgil, Segoe UI Emoji" font-size="20px" fill="#000000" text-anchor="middle" style="white-space: pre;" direction="ltr" dominant-baseline="text-before-edge">Data</text></g><g stroke-linecap="round"><g transform="translate(972.3831946502348 231.05697701430677) rotate(0 43.48341281638977 -10.668856088444329)"><path d="M-1.05 0.65 C21.72 -6.26, 44.3 -8.18, 86.51 -21.99 M0.57 -0.07 C20.85 -4.63, 42.89 -10.61, 88.02 -20.44" stroke="#000000" stroke-width="2" fill="none"></path></g><g transform="translate(972.3831946502348 231.05697701430677) rotate(0 43.48341281638977 -10.668856088444329)"><path d="M86.23 -21.26 L75.86 -9.87 L71.6 -23.82 L87.14 -18.72" stroke="none" stroke-width="0" fill="#000000" fill-rule="evenodd"></path><path d="M87.23 -19.95 C85.49 -19.25, 83.46 -14.71, 75.46 -12.51 M88.45 -20.49 C84.69 -17.61, 82.38 -16.15, 76.59 -11.34 M75.38 -11.69 C76.1 -14.66, 74.63 -21.17, 72.4 -22.49 M76.13 -11.5 C75.67 -15.51, 73.75 -19.59, 73.7 -23.88 M73.87 -24.24 C79.3 -23.09, 82.71 -21.1, 86.66 -19.33 M73.84 -23.33 C76.4 -22.97, 80.41 -22.17, 87.56 -20.4 M88.02 -20.44 C88.02 -20.44, 88.02 -20.44, 88.02 -20.44 M88.02 -20.44 C88.02 -20.44, 88.02 -20.44, 88.02 -20.44" stroke="#000000" stroke-width="2" fill="none"></path></g></g><mask></mask><g stroke-linecap="round" transform="translate(1078.1104708111206 144.5198412698411) rotate(0 66 42.5)"><path d="M-0.83 -0.29 L133.4 -1.77 L131.81 84.12 L1.72 84.29" stroke="none" stroke-width="0" fill="#9cd6ba"></path><path d="M0.65 0.44 C46.34 2.29, 97.14 -0.23, 130.35 -1.13 M-0.07 -0.53 C33.66 -0.51, 65.56 -0.16, 131.9 0.59 M131.34 1.68 C133.11 34.67, 129.84 65.94, 133.81 85.47 M131.64 0.78 C132.4 29.48, 132.28 61.17, 131.61 85.23 M131.19 86.59 C87.04 85.26, 43.97 83.63, 1.48 83.64 M132.41 84.51 C89.87 86.16, 48.02 85.22, 0.06 85.46 M-1.4 86.63 C0.84 68.03, 2 47.19, 1.05 0.84 M-0.32 84.72 C-0.89 54.48, -0.65 24.63, 0.73 -0.89" stroke="#000000" stroke-width="2" fill="none"></path></g><g transform="translate(1098.5304842388546 162.5198412698411) rotate(0 45.609947204589844 24)"><text x="45.609947204589844" y="0" font-family="Virgil, Segoe UI Emoji" font-size="20px" fill="#000000" text-anchor="middle" style="white-space: pre;" direction="ltr" dominant-baseline="text-before-edge">Fair</text><text x="45.609947204589844" y="24" font-family="Virgil, Segoe UI Emoji" font-size="20px" fill="#000000" text-anchor="middle" style="white-space: pre;" direction="ltr" dominant-baseline="text-before-edge">Classifier</text></g><g stroke-linecap="round"><g transform="translate(910.0872120048157 101.95838900320979) rotate(0 -228.1204286435003 55.333051772043234)"><path d="M-0.52 0.18 C-138.37 35.27, -276.49 67.33, -456.02 110.98 M-0.23 -0.31 C-121.61 29.59, -244.26 58.8, -454.92 110.4" stroke="#000000" stroke-width="2" fill="none"></path></g><g transform="translate(910.0872120048157 101.95838900320979) rotate(0 -228.1204286435003 55.333051772043234)"><path d="M-454.76 109.71 L-444.14 101.98 L-441.97 111.53 L-456.78 110.36" stroke="none" stroke-width="0" fill="#000000" fill-rule="evenodd"></path><path d="M-455.79 110.7 C-451.55 108.59, -448.45 103.46, -444.33 101.87 M-455.3 109.89 C-451.26 108.43, -448.97 105.21, -442.52 100.92 M-443.01 102.17 C-442.87 103.87, -442.53 106.89, -439.06 113.15 M-443.84 101.6 C-442.2 104.15, -441.46 107.12, -440.38 113.36 M-440.03 113.64 C-445.71 112.73, -448.38 110.57, -455.48 111.21 M-439.55 113.74 C-444.35 112.57, -447.27 112.36, -454.45 109.84 M-454.92 110.4 C-454.92 110.4, -454.92 110.4, -454.92 110.4 M-454.92 110.4 C-454.92 110.4, -454.92 110.4, -454.92 110.4" stroke="#000000" stroke-width="2" fill="none"></path></g></g><mask></mask><g stroke-linecap="round" transform="translate(829.6840173839742 437.01984126984104) rotate(0 66 42.5)"><path d="M-0.49 1.89 L130.47 -1.9 L130.73 86.46 L1.17 83.57" stroke="none" stroke-width="0" fill="#bb8fce"></path><path d="M1.64 1.15 C44.92 0.52, 87.2 0.62, 133.95 -1.98 M0.79 -0.57 C36.59 1.24, 73.15 1.93, 132.68 0.12 M132.94 1.93 C130.94 22.08, 134.06 48.71, 132.28 84.87 M132.76 -0.93 C133.4 26.37, 132.51 52.08, 131.71 84.99 M132.88 84.81 C81.7 83.93, 30.79 86.85, 1.2 83.08 M131.9 85 C96.39 86.25, 60.3 86.38, -0.5 85.26 M-0.87 84.24 C1.01 53.35, -0.54 18.63, -1.86 0.62 M0.38 85.42 C-0.73 64.09, -0.55 42.69, -0.96 0.16" stroke="#000000" stroke-width="2" fill="none"></path></g><g transform="translate(853.5640222667867 451.90873015872995) rotate(0 43.14995574951172 24)"><text x="43.14995574951172" y="0" font-family="Virgil, Segoe UI Emoji" font-size="20px" fill="#000000" text-anchor="middle" style="white-space: pre;" direction="ltr" dominant-baseline="text-before-edge">Train</text><text x="43.14995574951172" y="24" font-family="Virgil, Segoe UI Emoji" font-size="20px" fill="#000000" text-anchor="middle" style="white-space: pre;" direction="ltr" dominant-baseline="text-before-edge">Algorithm</text></g><g stroke-linecap="round"><g transform="translate(979.9567412230881 482.18661458008665) rotate(0 45.580825353241835 -0.5756523775477262)"><path d="M1.84 -0.39 C22.16 -0.9, 44.18 -2.66, 90.98 -1.74 M-0.06 0.31 C20.83 1.44, 42.6 0.49, 91.22 0.3" stroke="#000000" stroke-width="2" fill="none"></path></g><g transform="translate(979.9567412230881 482.18661458008665) rotate(0 45.580825353241835 -0.5756523775477262)"><path d="M89.69 -1.6 L76.41 8.22 L78.75 -7.35 L91.62 -0.23" stroke="none" stroke-width="0" fill="#000000" fill-rule="evenodd"></path><path d="M92.6 0.01 C88.93 1.65, 86.48 1.87, 77.34 5.69 M91.18 0.54 C88.07 2.45, 85.57 3.27, 77.52 7.23 M76.66 5.71 C78.55 3.45, 77.73 -1.53, 77.64 -4.81 M78.09 7.01 C77.4 3.54, 77.34 0.1, 78.13 -6.31 M78.21 -7.4 C83.43 -2.9, 88.54 -2.77, 90.77 0.43 M77.6 -5.9 C82.6 -3.36, 87.89 -0.85, 91.91 0 M91.22 0.3 C91.22 0.3, 91.22 0.3, 91.22 0.3 M91.22 0.3 C91.22 0.3, 91.22 0.3, 91.22 0.3" stroke="#000000" stroke-width="2" fill="none"></path></g></g><mask></mask><g stroke-linecap="round" transform="translate(1083.8037582033257 440.2420634920632) rotate(0 66 42.5)"><path d="M1.17 -1.43 L132.4 -0.53 L133.37 84.03 L0.03 83.34" stroke="none" stroke-width="0" fill="#9cd6ba"></path><path d="M1.95 -1.98 C36.58 -1.22, 72.64 1.78, 130.85 -0.12 M0.68 0.12 C43.5 -0.67, 87.65 -0.84, 132.96 -0.8 M132.28 -0.13 C132.75 20.31, 131.88 38.6, 130.13 86.3 M131.71 -0.01 C132.67 28.43, 132.47 58.52, 131.9 85.42 M133.2 83.08 C104.75 85.8, 80.54 85.43, 0 85.06 M131.5 85.26 C92.83 84.83, 51.29 84.79, -0.38 85.33 M-1.86 85.62 C-0.56 52.17, -1.29 20.11, 0.84 -1.48 M-0.96 85.16 C0.22 54.97, -0.3 22.1, -0.63 0.73" stroke="#000000" stroke-width="2" fill="none"></path></g><g transform="translate(1123.8159660822862 456.01984126984104) rotate(0 26.989974975585938 24)"><text x="26.989974975585938" y="0" font-family="Virgil, Segoe UI Emoji" font-size="20px" fill="#000000" text-anchor="middle" style="white-space: pre;" direction="ltr" dominant-baseline="text-before-edge">Fair</text><text x="26.989974975585938" y="24" font-family="Virgil, Segoe UI Emoji" font-size="20px" fill="#000000" text-anchor="middle" style="white-space: pre;" direction="ltr" dominant-baseline="text-before-edge">Model</text></g><g stroke-linecap="round"><g transform="translate(1066.7932435555388 375.8269566934436) rotate(0 -47.20003224110269 25.857451883518365)"><path d="M0.62 -0.27 C-34.68 20.84, -72.79 38.6, -94.63 51.98 M-0.82 0.76 C-32.14 17.24, -66.11 35.02, -95.02 51.13" stroke="#000000" stroke-width="2" fill="none"></path></g><g transform="translate(1066.7932435555388 375.8269566934436) rotate(0 -47.20003224110269 25.857451883518365)"><path d="M-95.1 49.19 L-85.31 38.85 L-80.66 49.72 L-93.32 52.07" stroke="none" stroke-width="0" fill="#000000" fill-rule="evenodd"></path><path d="M-94.56 50.93 C-90.1 47.57, -88.03 41.66, -85.18 39.4 M-95.64 51.7 C-91.58 47.12, -89.02 42.86, -85.47 38.76 M-85.61 38.74 C-83.74 42.82, -81.68 48.48, -80.82 51.03 M-86.76 39.39 C-83.75 43.23, -82.57 46.49, -80 50.75 M-80 49.54 C-84.13 49.7, -88.33 52.12, -95.62 50.37 M-79.41 49.84 C-83.76 49.77, -87.5 50.36, -95.02 50.51 M-95.02 51.13 C-95.02 51.13, -95.02 51.13, -95.02 51.13 M-95.02 51.13 C-95.02 51.13, -95.02 51.13, -95.02 51.13" stroke="#000000" stroke-width="2" fill="none"></path></g></g><mask></mask><g transform="translate(333.68253968254044 27.57539682539658) rotate(0 45.02996063232422 24)"><text x="45.02996063232422" y="0" font-family="Virgil, Segoe UI Emoji" font-size="20px" fill="#000000" text-anchor="middle" style="white-space: pre;" direction="ltr" dominant-baseline="text-before-edge">Learn</text><text x="45.02996063232422" y="24" font-family="Virgil, Segoe UI Emoji" font-size="20px" fill="#000000" text-anchor="middle" style="white-space: pre;" direction="ltr" dominant-baseline="text-before-edge">Relations</text></g><g stroke-linecap="round"><g transform="translate(461.81188786136136 55.61151924606202) rotate(0 45.60023205614675 0.5845099777637017)"><path d="M0.31 -0.75 C15.75 -0.45, 76.93 1.38, 92.18 1.92 M-0.98 1.47 C14.41 1.41, 76.26 0.23, 91.63 0.11" stroke="#000000" stroke-width="2" fill="none"></path></g><g transform="translate(461.81188786136136 55.61151924606202) rotate(0 45.60023205614675 0.5845099777637017)"><path d="M92.75 1.45 L78.2 4.91 L79.54 -5.55 L89.86 2.03" stroke="none" stroke-width="0" fill="#000000" fill-rule="evenodd"></path><path d="M90.7 1.05 C88.85 2.31, 86.03 5.06, 79.34 7.88 M91.97 0.14 C88.34 2.07, 86.31 3.08, 78.85 6.44 M78.77 7.6 C77.81 3.16, 77.95 -0.37, 77.43 -6.16 M77.86 6.25 C78.26 2.92, 77.93 -2.05, 77.81 -5.79 M77.07 -5.06 C82.39 -4.04, 83.81 -2.9, 92.13 1.1 M78.37 -5.33 C82.01 -4.32, 85.94 -3.13, 91.13 -0.21 M91.63 0.11 C91.63 0.11, 91.63 0.11, 91.63 0.11 M91.63 0.11 C91.63 0.11, 91.63 0.11, 91.63 0.11" stroke="#000000" stroke-width="2" fill="none"></path></g></g><mask></mask><g stroke-linecap="round" transform="translate(571.5391640222476 12.57539682539658) rotate(0 66 42.5)"><path d="M1.35 0.07 L130.27 1.59 L132.49 83.23 L1.92 83.3" stroke="none" stroke-width="0" fill="#ced4da"></path><path d="M1.26 1 C41.43 2.77, 83.63 2.44, 133.66 -1.68 M0.04 -0.55 C49.4 0.04, 97.34 0.36, 131.73 -0.31 M133.51 -0.51 C132.47 21.75, 132.26 43.1, 131.81 85.4 M131.4 0.25 C132.97 23.45, 131.53 47.03, 132.39 84.34 M133.3 86.61 C85.3 83.48, 37.49 84.9, 1.32 84.39 M132.94 85.5 C91.29 86.58, 49.96 85.08, -0.43 84.01 M-0.86 86.77 C-2.07 63.82, -0.75 39.78, -1.79 1.85 M-0.66 85.41 C0.82 61.58, 0.05 38.25, -0.05 0.56" stroke="#000000" stroke-width="2" fill="none"></path></g><g transform="translate(579.5391945398258 17.57539682539658) rotate(0 59.029930114746094 36)"><text x="59.029930114746094" y="0" font-family="Virgil, Segoe UI Emoji" font-size="20px" fill="#000000" text-anchor="middle" style="white-space: pre;" direction="ltr" dominant-baseline="text-before-edge">Conditional</text><text x="59.029930114746094" y="24" font-family="Virgil, Segoe UI Emoji" font-size="20px" fill="#000000" text-anchor="middle" style="white-space: pre;" direction="ltr" dominant-baseline="text-before-edge">Probabilities</text><text x="59.029930114746094" y="48" font-family="Virgil, Segoe UI Emoji" font-size="20px" fill="#000000" text-anchor="middle" style="white-space: pre;" direction="ltr" dominant-baseline="text-before-edge">Table</text></g><g stroke-linecap="round"><g transform="translate(719.6271419462322 53.03612242066549) rotate(0 45.30317714532407 0.7811384405942761)"><path d="M-0.77 0.55 C14.55 0.79, 76.17 0.31, 91.37 0.6 M1.03 -0.2 C16.23 0.24, 75.1 1.65, 90.39 1.76" stroke="#000000" stroke-width="2" fill="none"></path></g><g transform="translate(719.6271419462322 53.03612242066549) rotate(0 45.30317714532407 0.7811384405942761)"><path d="M89.12 3.55 L76.18 6.48 L77.78 -5.9 L90.3 0.17" stroke="none" stroke-width="0" fill="#000000" fill-rule="evenodd"></path><path d="M91.09 1.69 C85.96 1.98, 84.61 3.65, 78.07 7.18 M90.3 1.45 C86.99 3.67, 82.56 5.08, 76.43 8.24 M75.83 6.77 C77.94 4.85, 76.23 0.02, 77.27 -4.76 M77.03 7.52 C76.88 4.59, 77.12 0.93, 76.85 -4.33 M75.94 -3.96 C80.06 -1.82, 83.62 -0.98, 90.31 2.71 M77.43 -5.08 C80.44 -2.43, 85.7 -1.15, 90.21 1.2 M90.39 1.76 C90.39 1.76, 90.39 1.76, 90.39 1.76 M90.39 1.76 C90.39 1.76, 90.39 1.76, 90.39 1.76" stroke="#000000" stroke-width="2" fill="none"></path></g></g><mask></mask><g stroke-linecap="round" transform="translate(829.3544181071184 10) rotate(0 66 42.5)"><path d="M1.78 -0.51 L130.6 0.87 L130.9 84.91 L-1.59 83.94" stroke="none" stroke-width="0" fill="#ced4da"></path><path d="M-0.09 -1.19 C29.27 1.06, 60.38 1.23, 131.08 -0.77 M-0.42 0.31 C29.74 -0.65, 58.63 -0.17, 132.49 0.15 M130.26 1.93 C134.38 27.76, 133.07 57.83, 132.07 84.11 M131.45 0.36 C131.35 32.53, 130.69 63.67, 132.75 84.42 M133.13 84.77 C83.21 84.3, 31.57 84.03, 1.27 85.31 M131.64 84.03 C92.53 86.29, 51.53 85.68, -0.76 85.56 M-0.37 84.45 C2.65 66.62, 1.41 47.22, -1.17 0.25 M-0.72 85.48 C0.22 59.54, 0.88 33.48, -0.71 -0.64" stroke="#000000" stroke-width="2" fill="none"></path></g><g transform="translate(860.6421827623376 27.22222222222223) rotate(0 33.51997375488281 24)"><text x="33.51997375488281" y="0" font-family="Virgil, Segoe UI Emoji" font-size="20px" fill="#000000" text-anchor="middle" style="white-space: pre;" direction="ltr" dominant-baseline="text-before-edge">Causal</text><text x="33.51997375488281" y="24" font-family="Virgil, Segoe UI Emoji" font-size="20px" fill="#000000" text-anchor="middle" style="white-space: pre;" direction="ltr" dominant-baseline="text-before-edge">Model</text></g><g stroke-linecap="round" transform="translate(10 32.49999999999983) rotate(0 19.444444444444457 24.055555555555543)"><path d="M6.68 5.81 C6.68 5.81, 6.68 5.81, 6.68 5.81 M6.68 5.81 C6.68 5.81, 6.68 5.81, 6.68 5.81 M3.85 24.23 C7.23 16.83, 14.69 10.3, 20.96 2.67 M2.31 22.26 C7.7 15.81, 14.04 8.37, 19.83 2.17 M3.86 34.03 C11.32 22.79, 18.12 15.13, 28.33 4.82 M4.87 31.92 C10.21 27.25, 14.96 20.66, 29.27 4.49 M10.15 38.73 C16.78 30.29, 26.41 21.92, 35.45 10.17 M7.89 40.02 C18.57 29.62, 27.66 19.32, 36.28 9.93 M11.14 47.72 C19.96 39.15, 22.98 34.41, 41.75 16.67 M12.4 46.74 C19.6 40.18, 26.09 32.57, 39.15 15.99 M24.35 48.35 C28.26 39.19, 34.02 35.3, 42.46 24.4 M24.2 46.81 C31.06 38.04, 39.15 29.79, 44.75 24.7" stroke="#ced4da" stroke-width="1" fill="none"></path><path d="M18.39 0.61 C22.05 0.13, 27.07 1.76, 30.54 4.93 C34.02 8.09, 38.14 14.56, 39.22 19.61 C40.3 24.67, 38.97 30.84, 37 35.27 C35.04 39.7, 31.44 44.3, 27.43 46.2 C23.42 48.1, 17.02 48.36, 12.94 46.66 C8.86 44.95, 5.23 40.18, 2.97 35.95 C0.7 31.71, -1.21 26.23, -0.63 21.25 C-0.04 16.26, 2.93 9.69, 6.47 6.04 C10.01 2.4, 17.78 0.24, 20.61 -0.63 C23.44 -1.51, 23.44 0.16, 23.46 0.78 M19.4 1.07 C23.24 0.42, 27.74 1.55, 30.77 4.49 C33.8 7.43, 36.37 13.87, 37.57 18.73 C38.77 23.6, 39.58 29.18, 37.96 33.69 C36.33 38.2, 31.9 43.57, 27.82 45.81 C23.75 48.06, 17.36 48.57, 13.49 47.16 C9.62 45.74, 6.8 41.66, 4.6 37.33 C2.39 32.99, 0.07 26.2, 0.26 21.14 C0.46 16.08, 2.82 10.37, 5.75 6.94 C8.69 3.51, 15.9 1.51, 17.85 0.57 C19.81 -0.37, 17.62 0.88, 17.5 1.33" stroke="#000000" stroke-width="2" fill="none"></path></g><g transform="translate(26.485146836900014 44.54570909701232) rotate(0 2.7099990844726562 12)"><text x="2.7099990844726562" y="0" font-family="Virgil, Segoe UI Emoji" font-size="20px" fill="#000000" text-anchor="middle" style="white-space: pre;" direction="ltr" dominant-baseline="text-before-edge">1</text></g><g stroke-linecap="round" transform="translate(250.5555555555556 237.33333333333331) rotate(0 19.444444444444457 24.055555555555543)"><path d="M4.58 10.61 C4.58 10.61, 4.58 10.61, 4.58 10.61 M4.58 10.61 C4.58 10.61, 4.58 10.61, 4.58 10.61 M2.66 25.42 C5.53 21.23, 13.83 14.5, 20.68 7.17 M0.61 27.17 C7.12 21.16, 10.86 15.68, 18.75 5.77 M4.33 34.83 C13.37 28.1, 19.97 18.07, 32.17 5.01 M5.14 35.33 C11.35 27.05, 17.83 19.89, 31.06 4.5 M9 42.96 C15.32 32.93, 25.59 23.96, 34.93 9.42 M7.29 42.48 C18.58 30.57, 28.97 18.77, 35.72 10.69 M16.1 48.65 C23.96 35.39, 34.35 25.02, 42.5 17.82 M15.19 46.81 C21.72 38.66, 30.97 30.85, 41.43 18.23 M20.61 52.67 C25.68 47.38, 30.37 39.06, 37.58 31.3 M21.29 52.01 C28.06 43.88, 35.29 36.55, 38.63 31.37" stroke="#ced4da" stroke-width="1" fill="none"></path><path d="M27.49 3.18 C31.37 4.97, 35.59 9.44, 37.43 14.06 C39.27 18.68, 39.81 25.8, 38.55 30.89 C37.29 35.98, 33.42 41.8, 29.85 44.58 C26.29 47.37, 21.11 48.16, 17.17 47.61 C13.22 47.06, 8.99 44.72, 6.17 41.26 C3.35 37.81, 0.52 31.99, 0.25 26.88 C-0.02 21.78, 2.35 15.02, 4.56 10.63 C6.77 6.23, 8.87 1.53, 13.5 0.53 C18.13 -0.48, 28.71 2.86, 32.33 4.61 C35.96 6.36, 35.66 10.67, 35.24 11.06 M17.29 -0.76 C21.11 -1.56, 28.29 0.46, 31.69 3.75 C35.1 7.04, 36.86 13.63, 37.73 19 C38.6 24.37, 38.82 31.64, 36.91 35.95 C35 40.27, 30.18 43.21, 26.26 44.9 C22.35 46.59, 17.3 47.21, 13.42 46.1 C9.54 44.98, 5.21 42.13, 2.99 38.22 C0.77 34.31, -0.32 28.13, 0.11 22.62 C0.54 17.12, 2.48 8.98, 5.57 5.18 C8.66 1.38, 16.72 0.51, 18.66 -0.19 C20.6 -0.88, 17.08 0.34, 17.21 1" stroke="#000000" stroke-width="2" fill="none"></path></g><g transform="translate(262.6307063597408 249.3790424303458) rotate(0 7.1199951171875 12)"><text x="7.1199951171875" y="0" font-family="Virgil, Segoe UI Emoji" font-size="20px" fill="#000000" text-anchor="middle" style="white-space: pre;" direction="ltr" dominant-baseline="text-before-edge">2</text></g><g stroke-linecap="round" transform="translate(772.7777777777779 459.5555555555555) rotate(0 19.4444444444444 24.055555555555543)"><path d="M8.42 4.67 C8.42 4.67, 8.42 4.67, 8.42 4.67 M8.42 4.67 C8.42 4.67, 8.42 4.67, 8.42 4.67 M4.2 20.2 C9.53 13.86, 15.16 7.41, 22.12 2.18 M5.19 19.75 C11.84 13.69, 17.83 6.69, 21.17 2.19 M4.63 36.23 C9.39 26.4, 18.4 17.25, 30.1 4.04 M2.74 35.3 C14.23 23.15, 22.69 11.45, 29.16 5.63 M9.23 41.13 C17.45 28.07, 27.51 19.85, 36.05 8.27 M7.99 40.05 C18.53 31.83, 25.95 20.81, 37.19 9.23 M13.03 48.12 C22.77 38.66, 28.27 29.45, 39.38 18.57 M15.13 46.8 C19.99 38.77, 26.81 32.55, 39.9 18.77 M25.58 48.83 C30.11 41.01, 34.18 36.12, 42.26 27.22 M24.73 48.24 C30.8 41.6, 36.09 35.46, 42.26 27.28" stroke="#ced4da" stroke-width="1" fill="none"></path><path d="M20.96 0.4 C25.08 0.69, 30.45 3.34, 33.58 7.17 C36.72 11.01, 39.53 18.33, 39.79 23.42 C40.05 28.51, 37.68 33.76, 35.13 37.71 C32.57 41.67, 28.33 45.92, 24.43 47.16 C20.53 48.4, 15.38 47.39, 11.71 45.14 C8.04 42.88, 4.16 38.3, 2.41 33.63 C0.65 28.97, 0.15 22.02, 1.18 17.16 C2.21 12.3, 4.98 7.42, 8.59 4.48 C12.2 1.54, 20.2 0.03, 22.83 -0.47 C25.46 -0.97, 24.3 1.09, 24.37 1.49 M13.22 1.91 C16.57 0.07, 21.15 -0.24, 24.99 1.35 C28.83 2.94, 34.07 6.83, 36.24 11.47 C38.42 16.1, 38.66 23.79, 38.04 29.16 C37.42 34.53, 35.71 40.69, 32.5 43.68 C29.29 46.68, 23.02 47.47, 18.81 47.15 C14.6 46.82, 10.55 45.1, 7.24 41.74 C3.92 38.39, -0.13 32.02, -1.08 27.01 C-2.04 22.01, -0.87 15.76, 1.52 11.7 C3.92 7.64, 11.25 4.12, 13.3 2.67 C15.35 1.21, 13.93 3.01, 13.81 2.99" stroke="#000000" stroke-width="2" fill="none"></path></g><g transform="translate(785.1629261405569 471.601264652568) rotate(0 6.80999755859375 12)"><text x="6.80999755859375" y="0" font-family="Virgil, Segoe UI Emoji" font-size="20px" fill="#000000" text-anchor="middle" style="white-space: pre;" direction="ltr" dominant-baseline="text-before-edge">3</text></g></svg>